<mxfile host="app.diagrams.net" agent="Mozilla/5.0 (Macintosh; Intel Mac OS X 10.15; rv:127.0) Gecko/20100101 Firefox/127.0" version="24.7.13" pages="6">
  <diagram name="Page-1" id="C5Rluev8gDHUuXHZYuUx">
    <mxGraphModel>
      <root>
        <mxCell id="0" />
        <mxCell id="1" parent="0" />
      </root>
    </mxGraphModel>
  </diagram>
  <diagram id="nxN1Qa2fMbHFzz96RSI6" name="task-1-cd">
    <mxGraphModel dx="569" dy="756" grid="1" gridSize="10" guides="1" tooltips="1" connect="1" arrows="1" fold="1" page="1" pageScale="1" pageWidth="827" pageHeight="1169" math="0" shadow="0">
      <root>
        <mxCell id="0" />
        <mxCell id="1" parent="0" />
        <mxCell id="tk3_r2uyEiqzYExMzTs2-6" value="service " style="html=1;whiteSpace=wrap;" parent="1" vertex="1">
          <mxGeometry x="200" y="372" width="110" height="50" as="geometry" />
        </mxCell>
        <mxCell id="tk3_r2uyEiqzYExMzTs2-7" value="result" style="html=1;whiteSpace=wrap;" parent="1" vertex="1">
          <mxGeometry x="478" y="228" width="122" height="50" as="geometry" />
        </mxCell>
        <mxCell id="tk3_r2uyEiqzYExMzTs2-8" value="therapist" style="html=1;whiteSpace=wrap;" parent="1" vertex="1">
          <mxGeometry x="478" y="372" width="122" height="50" as="geometry" />
        </mxCell>
        <mxCell id="tk3_r2uyEiqzYExMzTs2-9" value="controller" style="html=1;whiteSpace=wrap;" parent="1" vertex="1">
          <mxGeometry x="479" y="524" width="122" height="66" as="geometry" />
        </mxCell>
        <mxCell id="tk3_r2uyEiqzYExMzTs2-10" value="video recorder" style="html=1;whiteSpace=wrap;" parent="1" vertex="1">
          <mxGeometry x="200" y="524" width="120" height="70" as="geometry" />
        </mxCell>
        <mxCell id="tk3_r2uyEiqzYExMzTs2-11" value="partners" style="html=1;whiteSpace=wrap;" parent="1" vertex="1">
          <mxGeometry x="200" y="690" width="120" height="50" as="geometry" />
        </mxCell>
        <mxCell id="tk3_r2uyEiqzYExMzTs2-12" value="partner B" style="html=1;whiteSpace=wrap;" parent="1" vertex="1">
          <mxGeometry x="320" y="844" width="110" height="50" as="geometry" />
        </mxCell>
        <mxCell id="tk3_r2uyEiqzYExMzTs2-13" value="partner A" style="html=1;whiteSpace=wrap;" parent="1" vertex="1">
          <mxGeometry x="90" y="844" width="110" height="50" as="geometry" />
        </mxCell>
        <mxCell id="tk3_r2uyEiqzYExMzTs2-14" value="Extends" style="endArrow=block;endSize=16;endFill=0;html=1;rounded=0;entryX=0.627;entryY=1.02;entryDx=0;entryDy=0;entryPerimeter=0;" parent="1" target="tk3_r2uyEiqzYExMzTs2-11" edge="1">
          <mxGeometry x="-0.15" width="160" relative="1" as="geometry">
            <mxPoint x="360" y="840" as="sourcePoint" />
            <mxPoint x="461" y="784" as="targetPoint" />
            <mxPoint as="offset" />
          </mxGeometry>
        </mxCell>
        <mxCell id="tk3_r2uyEiqzYExMzTs2-15" value="Extends" style="endArrow=block;endSize=16;endFill=0;html=1;rounded=0;" parent="1" edge="1">
          <mxGeometry width="160" relative="1" as="geometry">
            <mxPoint x="150" y="840" as="sourcePoint" />
            <mxPoint x="240.25" y="742" as="targetPoint" />
            <Array as="points">
              <mxPoint x="232.25" y="750" />
            </Array>
          </mxGeometry>
        </mxCell>
        <mxCell id="tk3_r2uyEiqzYExMzTs2-16" value="" style="endArrow=none;html=1;rounded=0;entryX=0.45;entryY=1.014;entryDx=0;entryDy=0;exitX=0.45;exitY=0;exitDx=0;exitDy=0;entryPerimeter=0;exitPerimeter=0;" parent="1" source="tk3_r2uyEiqzYExMzTs2-11" target="tk3_r2uyEiqzYExMzTs2-10" edge="1">
          <mxGeometry width="50" height="50" relative="1" as="geometry">
            <mxPoint x="260" y="680" as="sourcePoint" />
            <mxPoint x="253" y="590" as="targetPoint" />
            <Array as="points" />
          </mxGeometry>
        </mxCell>
        <mxCell id="tk3_r2uyEiqzYExMzTs2-17" value="&lt;font style=&quot;font-size: 14px;&quot;&gt;0..*&lt;/font&gt;" style="text;html=1;align=center;verticalAlign=middle;resizable=0;points=[];autosize=1;strokeColor=none;fillColor=none;" parent="1" vertex="1">
          <mxGeometry x="255.5" y="594" width="40" height="30" as="geometry" />
        </mxCell>
        <mxCell id="tk3_r2uyEiqzYExMzTs2-18" value="&lt;font style=&quot;font-size: 14px;&quot;&gt;1&lt;/font&gt;" style="text;html=1;align=center;verticalAlign=middle;resizable=0;points=[];autosize=1;strokeColor=none;fillColor=none;" parent="1" vertex="1">
          <mxGeometry x="253.5" y="662" width="30" height="30" as="geometry" />
        </mxCell>
        <mxCell id="tk3_r2uyEiqzYExMzTs2-19" value="" style="endArrow=diamondThin;endFill=0;endSize=24;html=1;rounded=0;exitX=0.5;exitY=1;exitDx=0;exitDy=0;entryX=0.45;entryY=-0.014;entryDx=0;entryDy=0;entryPerimeter=0;" parent="1" source="tk3_r2uyEiqzYExMzTs2-6" target="tk3_r2uyEiqzYExMzTs2-10" edge="1">
          <mxGeometry width="160" relative="1" as="geometry">
            <mxPoint x="319" y="666" as="sourcePoint" />
            <mxPoint x="303" y="517" as="targetPoint" />
          </mxGeometry>
        </mxCell>
        <mxCell id="tk3_r2uyEiqzYExMzTs2-20" value="&lt;font style=&quot;font-size: 14px;&quot;&gt;0..*&lt;/font&gt;" style="text;html=1;align=center;verticalAlign=middle;resizable=0;points=[];autosize=1;strokeColor=none;fillColor=none;" parent="1" vertex="1">
          <mxGeometry x="253.5" y="420" width="40" height="30" as="geometry" />
        </mxCell>
        <mxCell id="tk3_r2uyEiqzYExMzTs2-21" value="&lt;font style=&quot;font-size: 14px;&quot;&gt;1&lt;/font&gt;" style="text;html=1;align=center;verticalAlign=middle;resizable=0;points=[];autosize=1;strokeColor=none;fillColor=none;" parent="1" vertex="1">
          <mxGeometry x="253.5" y="496" width="30" height="30" as="geometry" />
        </mxCell>
        <mxCell id="tk3_r2uyEiqzYExMzTs2-22" value="" style="endArrow=none;html=1;rounded=0;entryX=0.917;entryY=0.846;entryDx=0;entryDy=0;exitX=0.991;exitY=0.436;exitDx=0;exitDy=0;exitPerimeter=0;entryPerimeter=0;" parent="1" source="tk3_r2uyEiqzYExMzTs2-10" target="tk3_r2uyEiqzYExMzTs2-23" edge="1">
          <mxGeometry width="50" height="50" relative="1" as="geometry">
            <mxPoint x="441" y="606.5" as="sourcePoint" />
            <mxPoint x="444" y="534.5" as="targetPoint" />
          </mxGeometry>
        </mxCell>
        <mxCell id="tk3_r2uyEiqzYExMzTs2-23" value="&lt;font style=&quot;font-size: 14px;&quot;&gt;1..*&lt;/font&gt;" style="text;html=1;align=center;verticalAlign=middle;resizable=0;points=[];autosize=1;strokeColor=none;fillColor=none;" parent="1" vertex="1">
          <mxGeometry x="438" y="530" width="40" height="30" as="geometry" />
        </mxCell>
        <mxCell id="tk3_r2uyEiqzYExMzTs2-24" value="&lt;font style=&quot;font-size: 14px;&quot;&gt;1&lt;/font&gt;" style="text;html=1;align=center;verticalAlign=middle;resizable=0;points=[];autosize=1;strokeColor=none;fillColor=none;" parent="1" vertex="1">
          <mxGeometry x="318" y="528" width="30" height="30" as="geometry" />
        </mxCell>
        <mxCell id="tk3_r2uyEiqzYExMzTs2-25" value="steers" style="text;html=1;align=center;verticalAlign=middle;resizable=0;points=[];autosize=1;strokeColor=none;fillColor=none;" parent="1" vertex="1">
          <mxGeometry x="373" y="554" width="51" height="26" as="geometry" />
        </mxCell>
        <mxCell id="tk3_r2uyEiqzYExMzTs2-27" value="" style="endArrow=none;html=1;rounded=0;entryX=0;entryY=0.5;entryDx=0;entryDy=0;exitX=1;exitY=0.5;exitDx=0;exitDy=0;" parent="1" source="tk3_r2uyEiqzYExMzTs2-6" target="tk3_r2uyEiqzYExMzTs2-8" edge="1">
          <mxGeometry width="50" height="50" relative="1" as="geometry">
            <mxPoint x="361" y="404.5" as="sourcePoint" />
            <mxPoint x="483" y="401.5" as="targetPoint" />
          </mxGeometry>
        </mxCell>
        <mxCell id="tk3_r2uyEiqzYExMzTs2-30" value="&lt;font style=&quot;font-size: 14px;&quot;&gt;1..*&lt;/font&gt;" style="text;html=1;align=center;verticalAlign=middle;resizable=0;points=[];autosize=1;strokeColor=none;fillColor=none;" parent="1" vertex="1">
          <mxGeometry x="308" y="370" width="40" height="30" as="geometry" />
        </mxCell>
        <mxCell id="tk3_r2uyEiqzYExMzTs2-31" value="&lt;font style=&quot;font-size: 14px;&quot;&gt;1&lt;/font&gt;" style="text;html=1;align=center;verticalAlign=middle;resizable=0;points=[];autosize=1;strokeColor=none;fillColor=none;" parent="1" vertex="1">
          <mxGeometry x="449" y="370" width="30" height="30" as="geometry" />
        </mxCell>
        <mxCell id="tk3_r2uyEiqzYExMzTs2-32" value="" style="endArrow=none;html=1;rounded=0;entryX=0.5;entryY=0;entryDx=0;entryDy=0;exitX=0.5;exitY=1;exitDx=0;exitDy=0;" parent="1" source="tk3_r2uyEiqzYExMzTs2-7" target="tk3_r2uyEiqzYExMzTs2-8" edge="1">
          <mxGeometry width="50" height="50" relative="1" as="geometry">
            <mxPoint x="431" y="315" as="sourcePoint" />
            <mxPoint x="558" y="316.5" as="targetPoint" />
          </mxGeometry>
        </mxCell>
        <mxCell id="tk3_r2uyEiqzYExMzTs2-34" value="&lt;font style=&quot;font-size: 14px;&quot;&gt;0..*&lt;/font&gt;" style="edgeLabel;html=1;align=center;verticalAlign=middle;resizable=0;points=[];" parent="tk3_r2uyEiqzYExMzTs2-32" vertex="1" connectable="0">
          <mxGeometry x="0.785" y="4" relative="1" as="geometry">
            <mxPoint x="14" y="-3" as="offset" />
          </mxGeometry>
        </mxCell>
        <mxCell id="tk3_r2uyEiqzYExMzTs2-33" value="" style="endArrow=none;html=1;rounded=0;entryX=1.025;entryY=0.64;entryDx=0;entryDy=0;entryPerimeter=0;" parent="1" target="tk3_r2uyEiqzYExMzTs2-11" edge="1">
          <mxGeometry width="50" height="50" relative="1" as="geometry">
            <mxPoint x="600" y="400" as="sourcePoint" />
            <mxPoint x="330" y="720" as="targetPoint" />
            <Array as="points">
              <mxPoint x="640" y="400" />
              <mxPoint x="640" y="720" />
            </Array>
          </mxGeometry>
        </mxCell>
        <mxCell id="tk3_r2uyEiqzYExMzTs2-35" value="&lt;font style=&quot;font-size: 14px;&quot;&gt;1..*&lt;/font&gt;" style="text;html=1;align=center;verticalAlign=middle;resizable=0;points=[];autosize=1;strokeColor=none;fillColor=none;" parent="1" vertex="1">
          <mxGeometry x="531" y="276" width="40" height="30" as="geometry" />
        </mxCell>
        <mxCell id="tk3_r2uyEiqzYExMzTs2-37" value="1" style="text;html=1;align=center;verticalAlign=middle;resizable=0;points=[];autosize=1;strokeColor=none;fillColor=none;" parent="1" vertex="1">
          <mxGeometry x="600" y="372" width="25" height="26" as="geometry" />
        </mxCell>
        <mxCell id="tk3_r2uyEiqzYExMzTs2-38" value="&lt;font style=&quot;font-size: 14px;&quot;&gt;1..*&lt;/font&gt;" style="text;html=1;align=center;verticalAlign=middle;resizable=0;points=[];autosize=1;strokeColor=none;fillColor=none;" parent="1" vertex="1">
          <mxGeometry x="325" y="688" width="40" height="30" as="geometry" />
        </mxCell>
        <mxCell id="tk3_r2uyEiqzYExMzTs2-39" value="" style="endArrow=diamondThin;endFill=0;endSize=24;html=1;rounded=0;exitX=0;exitY=0.25;exitDx=0;exitDy=0;" parent="1" source="tk3_r2uyEiqzYExMzTs2-7" edge="1">
          <mxGeometry width="160" relative="1" as="geometry">
            <mxPoint x="306" y="289" as="sourcePoint" />
            <mxPoint x="250" y="370" as="targetPoint" />
            <Array as="points">
              <mxPoint x="250" y="240" />
            </Array>
          </mxGeometry>
        </mxCell>
        <mxCell id="tk3_r2uyEiqzYExMzTs2-40" value="&lt;font style=&quot;font-size: 14px;&quot;&gt;1..*&lt;/font&gt;" style="text;html=1;align=center;verticalAlign=middle;resizable=0;points=[];autosize=1;strokeColor=none;fillColor=none;" parent="1" vertex="1">
          <mxGeometry x="438" y="218" width="40" height="30" as="geometry" />
        </mxCell>
        <mxCell id="tk3_r2uyEiqzYExMzTs2-41" value="&lt;font style=&quot;font-size: 14px;&quot;&gt;1&lt;/font&gt;" style="text;html=1;align=center;verticalAlign=middle;resizable=0;points=[];autosize=1;strokeColor=none;fillColor=none;" parent="1" vertex="1">
          <mxGeometry x="254" y="342" width="30" height="30" as="geometry" />
        </mxCell>
        <mxCell id="tk3_r2uyEiqzYExMzTs2-42" value="" style="endArrow=diamondThin;endFill=1;endSize=24;html=1;rounded=0;entryX=0.5;entryY=1;entryDx=0;entryDy=0;exitX=0.02;exitY=0.885;exitDx=0;exitDy=0;exitPerimeter=0;" parent="1" source="tk3_r2uyEiqzYExMzTs2-44" target="tk3_r2uyEiqzYExMzTs2-8" edge="1">
          <mxGeometry width="160" relative="1" as="geometry">
            <mxPoint x="539" y="530" as="sourcePoint" />
            <mxPoint x="543" y="435" as="targetPoint" />
          </mxGeometry>
        </mxCell>
        <mxCell id="tk3_r2uyEiqzYExMzTs2-43" value="1" style="text;html=1;align=center;verticalAlign=middle;resizable=0;points=[];autosize=1;strokeColor=none;fillColor=none;" parent="1" vertex="1">
          <mxGeometry x="544" y="439" width="25" height="26" as="geometry" />
        </mxCell>
        <mxCell id="tk3_r2uyEiqzYExMzTs2-44" value="1" style="text;html=1;align=center;verticalAlign=middle;resizable=0;points=[];autosize=1;strokeColor=none;fillColor=none;" parent="1" vertex="1">
          <mxGeometry x="538.5" y="500" width="25" height="26" as="geometry" />
        </mxCell>
      </root>
    </mxGraphModel>
  </diagram>
  <diagram id="hJTdhT4ztenGCs18m5h2" name="task-2-sd">
    <mxGraphModel grid="0" page="1" gridSize="10" guides="1" tooltips="1" connect="1" arrows="1" fold="1" pageScale="1" pageWidth="827" pageHeight="1169" background="none" math="0" shadow="0">
      <root>
        <mxCell id="0" />
        <mxCell id="1" parent="0" />
        <mxCell id="wgqo_BjnbtqxxB7jQF8x-1" value="&lt;font style=&quot;font-size: 14px;&quot;&gt;&lt;b&gt;SD Therapy Session&lt;/b&gt;&lt;/font&gt;" style="shape=umlFrame;whiteSpace=wrap;html=1;pointerEvents=0;recursiveResize=0;container=1;collapsible=0;width=160;movable=1;resizable=1;rotatable=1;deletable=1;editable=1;locked=0;connectable=1;labelBackgroundColor=none;" parent="1" vertex="1">
          <mxGeometry x="24" y="77" width="803" height="1589" as="geometry" />
        </mxCell>
        <mxCell id="wgqo_BjnbtqxxB7jQF8x-2" value="&lt;font style=&quot;font-size: 14px;&quot;&gt;&lt;b&gt;:Therapsit&lt;/b&gt;&lt;/font&gt;" style="shape=umlLifeline;perimeter=lifelinePerimeter;whiteSpace=wrap;html=1;container=1;dropTarget=0;collapsible=0;recursiveResize=0;outlineConnect=0;portConstraint=eastwest;newEdgeStyle={&quot;curved&quot;:0,&quot;rounded&quot;:0};labelBackgroundColor=none;" parent="wgqo_BjnbtqxxB7jQF8x-1" vertex="1">
          <mxGeometry x="27" y="66" width="100" height="1498" as="geometry" />
        </mxCell>
        <mxCell id="7fY5sP91VnXdCJbbnflD-54" value="" style="shape=umlDestroy;whiteSpace=wrap;html=1;strokeWidth=3;targetShapes=umlLifeline;labelBackgroundColor=none;" parent="wgqo_BjnbtqxxB7jQF8x-2" vertex="1">
          <mxGeometry x="29.5" y="1336" width="43" height="59" as="geometry" />
        </mxCell>
        <mxCell id="wgqo_BjnbtqxxB7jQF8x-3" value="&lt;font style=&quot;font-size: 14px;&quot;&gt;&lt;b&gt;:Controller&lt;/b&gt;&lt;/font&gt;" style="shape=umlLifeline;perimeter=lifelinePerimeter;whiteSpace=wrap;html=1;container=1;dropTarget=0;collapsible=0;recursiveResize=0;outlineConnect=0;portConstraint=eastwest;newEdgeStyle={&quot;curved&quot;:0,&quot;rounded&quot;:0};labelBackgroundColor=none;" parent="wgqo_BjnbtqxxB7jQF8x-1" vertex="1">
          <mxGeometry x="148" y="66" width="100" height="1511" as="geometry" />
        </mxCell>
        <mxCell id="7fY5sP91VnXdCJbbnflD-55" value="" style="shape=umlDestroy;whiteSpace=wrap;html=1;strokeWidth=3;targetShapes=umlLifeline;labelBackgroundColor=none;" parent="wgqo_BjnbtqxxB7jQF8x-3" vertex="1">
          <mxGeometry x="35" y="761" width="30" height="30" as="geometry" />
        </mxCell>
        <mxCell id="wgqo_BjnbtqxxB7jQF8x-4" value="&lt;font style=&quot;font-size: 14px;&quot;&gt;&lt;b&gt;:Video Recorder&lt;/b&gt;&lt;/font&gt;" style="shape=umlLifeline;perimeter=lifelinePerimeter;whiteSpace=wrap;html=1;container=1;dropTarget=0;collapsible=0;recursiveResize=0;outlineConnect=0;portConstraint=eastwest;newEdgeStyle={&quot;curved&quot;:0,&quot;rounded&quot;:0};labelBackgroundColor=none;" parent="wgqo_BjnbtqxxB7jQF8x-1" vertex="1">
          <mxGeometry x="269" y="66" width="100" height="1503" as="geometry" />
        </mxCell>
        <mxCell id="wgqo_BjnbtqxxB7jQF8x-5" value="&lt;font style=&quot;font-size: 14px;&quot;&gt;&lt;b&gt;:Partner A&lt;/b&gt;&lt;/font&gt;" style="shape=umlLifeline;perimeter=lifelinePerimeter;whiteSpace=wrap;html=1;container=1;dropTarget=0;collapsible=0;recursiveResize=0;outlineConnect=0;portConstraint=eastwest;newEdgeStyle={&quot;curved&quot;:0,&quot;rounded&quot;:0};labelBackgroundColor=none;" parent="wgqo_BjnbtqxxB7jQF8x-1" vertex="1">
          <mxGeometry x="388" y="66" width="100" height="1518" as="geometry" />
        </mxCell>
        <mxCell id="wgqo_BjnbtqxxB7jQF8x-6" value="&lt;font style=&quot;font-size: 14px;&quot;&gt;&lt;b&gt;:Partner B&lt;/b&gt;&lt;/font&gt;" style="shape=umlLifeline;perimeter=lifelinePerimeter;whiteSpace=wrap;html=1;container=1;dropTarget=0;collapsible=0;recursiveResize=0;outlineConnect=0;portConstraint=eastwest;newEdgeStyle={&quot;curved&quot;:0,&quot;rounded&quot;:0};labelBackgroundColor=none;" parent="wgqo_BjnbtqxxB7jQF8x-1" vertex="1">
          <mxGeometry x="515" y="66" width="100" height="1508" as="geometry" />
        </mxCell>
        <mxCell id="wgqo_BjnbtqxxB7jQF8x-7" value="&lt;font style=&quot;font-size: 14px;&quot;&gt;&lt;b&gt;:Service&lt;/b&gt;&lt;/font&gt;" style="shape=umlLifeline;perimeter=lifelinePerimeter;whiteSpace=wrap;html=1;container=1;dropTarget=0;collapsible=0;recursiveResize=0;outlineConnect=0;portConstraint=eastwest;newEdgeStyle={&quot;curved&quot;:0,&quot;rounded&quot;:0};labelBackgroundColor=none;" parent="wgqo_BjnbtqxxB7jQF8x-1" vertex="1">
          <mxGeometry x="627" y="66" width="100" height="1523" as="geometry" />
        </mxCell>
        <mxCell id="7fY5sP91VnXdCJbbnflD-60" value="" style="html=1;points=[[0,0,0,0,5],[0,1,0,0,-5],[1,0,0,0,5],[1,1,0,0,-5]];perimeter=orthogonalPerimeter;outlineConnect=0;targetShapes=umlLifeline;portConstraint=eastwest;newEdgeStyle={&quot;curved&quot;:0,&quot;rounded&quot;:0};labelBackgroundColor=none;" parent="wgqo_BjnbtqxxB7jQF8x-7" vertex="1">
          <mxGeometry x="39" y="1236" width="10" height="80" as="geometry" />
        </mxCell>
        <mxCell id="wgqo_BjnbtqxxB7jQF8x-9" value="" style="endArrow=open;endFill=1;endSize=12;html=1;rounded=0;labelBackgroundColor=none;fontColor=default;" parent="wgqo_BjnbtqxxB7jQF8x-1" edge="1">
          <mxGeometry width="160" relative="1" as="geometry">
            <mxPoint x="75" y="144" as="sourcePoint" />
            <mxPoint x="200" y="144" as="targetPoint" />
          </mxGeometry>
        </mxCell>
        <mxCell id="wgqo_BjnbtqxxB7jQF8x-17" value="Opt" style="shape=umlFrame;whiteSpace=wrap;html=1;pointerEvents=0;recursiveResize=0;container=1;collapsible=0;width=50;movable=1;resizable=1;rotatable=1;deletable=1;editable=1;locked=0;connectable=1;labelBackgroundColor=none;" parent="wgqo_BjnbtqxxB7jQF8x-1" vertex="1">
          <mxGeometry x="52.5" y="181" width="244.5" height="138" as="geometry" />
        </mxCell>
        <mxCell id="7fY5sP91VnXdCJbbnflD-5" value="" style="endArrow=open;endFill=1;endSize=12;html=1;rounded=0;exitX=-0.012;exitY=0.28;exitDx=0;exitDy=0;exitPerimeter=0;labelBackgroundColor=none;fontColor=default;" parent="wgqo_BjnbtqxxB7jQF8x-17" target="wgqo_BjnbtqxxB7jQF8x-2" edge="1">
          <mxGeometry width="160" relative="1" as="geometry">
            <mxPoint x="471.3359999999998" y="842.3399999999997" as="sourcePoint" />
            <mxPoint x="72" y="422" as="targetPoint" />
          </mxGeometry>
        </mxCell>
        <mxCell id="7fY5sP91VnXdCJbbnflD-6" value="fail to process" style="text;html=1;align=center;verticalAlign=middle;resizable=0;points=[];autosize=1;strokeColor=none;fillColor=none;labelBackgroundColor=none;" parent="wgqo_BjnbtqxxB7jQF8x-17" vertex="1">
          <mxGeometry x="93" y="815" width="92" height="26" as="geometry" />
        </mxCell>
        <mxCell id="7fY5sP91VnXdCJbbnflD-7" value="process completed" style="text;html=1;align=center;verticalAlign=middle;resizable=0;points=[];autosize=1;strokeColor=none;fillColor=none;labelBackgroundColor=none;" parent="wgqo_BjnbtqxxB7jQF8x-17" vertex="1">
          <mxGeometry x="77" y="932" width="119" height="26" as="geometry" />
        </mxCell>
        <mxCell id="7fY5sP91VnXdCJbbnflD-13" value="" style="endArrow=open;endFill=1;endSize=12;html=1;rounded=0;labelBackgroundColor=none;fontColor=default;" parent="wgqo_BjnbtqxxB7jQF8x-17" edge="1">
          <mxGeometry width="160" relative="1" as="geometry">
            <mxPoint x="72" y="866" as="sourcePoint" />
            <mxPoint x="195" y="866" as="targetPoint" />
          </mxGeometry>
        </mxCell>
        <mxCell id="7fY5sP91VnXdCJbbnflD-15" value="" style="endArrow=open;endFill=1;endSize=12;html=1;rounded=0;labelBackgroundColor=none;fontColor=default;" parent="wgqo_BjnbtqxxB7jQF8x-17" edge="1">
          <mxGeometry width="160" relative="1" as="geometry">
            <mxPoint x="190" y="877" as="sourcePoint" />
            <mxPoint x="313" y="877" as="targetPoint" />
          </mxGeometry>
        </mxCell>
        <mxCell id="7fY5sP91VnXdCJbbnflD-16" value="resend recording" style="text;html=1;align=center;verticalAlign=middle;resizable=0;points=[];autosize=1;strokeColor=none;fillColor=none;labelBackgroundColor=none;" parent="wgqo_BjnbtqxxB7jQF8x-17" vertex="1">
          <mxGeometry x="196" y="844" width="108" height="26" as="geometry" />
        </mxCell>
        <mxCell id="7fY5sP91VnXdCJbbnflD-22" value="analysis again" style="text;html=1;align=center;verticalAlign=middle;resizable=0;points=[];autosize=1;strokeColor=none;fillColor=none;labelBackgroundColor=none;" parent="wgqo_BjnbtqxxB7jQF8x-17" vertex="1">
          <mxGeometry x="352" y="856" width="94" height="26" as="geometry" />
        </mxCell>
        <mxCell id="7fY5sP91VnXdCJbbnflD-14" value="resend video" style="text;html=1;align=center;verticalAlign=middle;resizable=0;points=[];autosize=1;strokeColor=none;fillColor=none;labelBackgroundColor=none;" parent="wgqo_BjnbtqxxB7jQF8x-17" vertex="1">
          <mxGeometry x="86" y="841" width="87" height="26" as="geometry" />
        </mxCell>
        <mxCell id="s34lRMNUB2OJTxqoYaER-14" value="Alt" style="shape=umlFrame;whiteSpace=wrap;html=1;pointerEvents=0;recursiveResize=0;container=1;collapsible=0;width=50;movable=1;resizable=1;rotatable=1;deletable=1;editable=1;locked=0;connectable=1;labelBackgroundColor=none;" parent="wgqo_BjnbtqxxB7jQF8x-17" vertex="1">
          <mxGeometry x="474" y="779" width="222" height="190.5" as="geometry" />
        </mxCell>
        <mxCell id="s34lRMNUB2OJTxqoYaER-16" value="fail to process" style="text;html=1;align=center;verticalAlign=middle;resizable=0;points=[];autosize=1;strokeColor=none;fillColor=none;labelBackgroundColor=none;" parent="s34lRMNUB2OJTxqoYaER-14" vertex="1">
          <mxGeometry x="87" y="20" width="92" height="26" as="geometry" />
        </mxCell>
        <mxCell id="s34lRMNUB2OJTxqoYaER-15" value="" style="endArrow=none;dashed=1;html=1;dashPattern=1 3;strokeWidth=2;rounded=0;exitX=0.02;exitY=0.568;exitDx=0;exitDy=0;exitPerimeter=0;labelBackgroundColor=none;fontColor=default;" parent="s34lRMNUB2OJTxqoYaER-14" target="wgqo_BjnbtqxxB7jQF8x-7" edge="1">
          <mxGeometry width="50" height="50" relative="1" as="geometry">
            <mxPoint x="1.8500000000001364" y="133.1719999999999" as="sourcePoint" />
            <mxPoint x="132.00199999999995" y="132.99799999999993" as="targetPoint" />
            <Array as="points">
              <mxPoint x="65.21000000000004" y="133.34000000000003" />
            </Array>
          </mxGeometry>
        </mxCell>
        <mxCell id="7fY5sP91VnXdCJbbnflD-18" value="Ref" style="shape=umlFrame;whiteSpace=wrap;html=1;pointerEvents=0;recursiveResize=0;container=1;collapsible=0;width=50;labelBackgroundColor=none;" parent="s34lRMNUB2OJTxqoYaER-14" vertex="1">
          <mxGeometry x="21" y="65" width="183" height="49" as="geometry" />
        </mxCell>
        <mxCell id="7fY5sP91VnXdCJbbnflD-20" value="&lt;font style=&quot;font-size: 14px;&quot;&gt;EmotionAnalysis&lt;/font&gt;" style="text;html=1;align=center;verticalAlign=middle;resizable=0;points=[];autosize=1;strokeColor=none;fillColor=none;labelBackgroundColor=none;" parent="7fY5sP91VnXdCJbbnflD-18" vertex="1">
          <mxGeometry x="35" y="10.5" width="121" height="29" as="geometry" />
        </mxCell>
        <mxCell id="7fY5sP91VnXdCJbbnflD-23" value="" style="endArrow=open;endFill=1;endSize=12;html=1;rounded=0;entryX=0.026;entryY=0.405;entryDx=0;entryDy=0;entryPerimeter=0;labelBackgroundColor=none;fontColor=default;" parent="s34lRMNUB2OJTxqoYaER-14" source="wgqo_BjnbtqxxB7jQF8x-7" edge="1">
          <mxGeometry width="160" relative="1" as="geometry">
            <mxPoint x="181.40999999999997" y="166" as="sourcePoint" />
            <mxPoint x="2.004000000000076" y="166" as="targetPoint" />
            <Array as="points" />
          </mxGeometry>
        </mxCell>
        <mxCell id="7fY5sP91VnXdCJbbnflD-3" value="process completed" style="text;html=1;align=center;verticalAlign=middle;resizable=0;points=[];autosize=1;strokeColor=none;fillColor=none;labelBackgroundColor=none;" parent="s34lRMNUB2OJTxqoYaER-14" vertex="1">
          <mxGeometry x="35" y="144" width="119" height="26" as="geometry" />
        </mxCell>
        <mxCell id="7fY5sP91VnXdCJbbnflD-63" value="" style="endArrow=open;endFill=1;endSize=12;html=1;rounded=0;exitX=-0.003;exitY=0.94;exitDx=0;exitDy=0;exitPerimeter=0;labelBackgroundColor=none;fontColor=default;" parent="wgqo_BjnbtqxxB7jQF8x-17" target="wgqo_BjnbtqxxB7jQF8x-2" edge="1">
          <mxGeometry width="160" relative="1" as="geometry">
            <mxPoint x="471.05399999999986" y="961.0000000000002" as="sourcePoint" />
            <mxPoint x="66.99777777777783" y="961.0000000000002" as="targetPoint" />
          </mxGeometry>
        </mxCell>
        <mxCell id="7fY5sP91VnXdCJbbnflD-39" value="" style="endArrow=open;endFill=1;endSize=12;html=1;rounded=0;labelBackgroundColor=none;fontColor=default;" parent="wgqo_BjnbtqxxB7jQF8x-17" edge="1">
          <mxGeometry width="160" relative="1" as="geometry">
            <mxPoint x="28" y="53" as="sourcePoint" />
            <mxPoint x="148" y="53" as="targetPoint" />
          </mxGeometry>
        </mxCell>
        <mxCell id="7fY5sP91VnXdCJbbnflD-42" value="both partner selected" style="edgeLabel;html=1;align=center;verticalAlign=middle;resizable=0;points=[];labelBackgroundColor=none;" parent="7fY5sP91VnXdCJbbnflD-39" connectable="0" vertex="1">
          <mxGeometry x="-0.3765" y="4" relative="1" as="geometry">
            <mxPoint x="21" y="32" as="offset" />
          </mxGeometry>
        </mxCell>
        <mxCell id="7fY5sP91VnXdCJbbnflD-44" value="check partner focus" style="text;html=1;align=center;verticalAlign=middle;resizable=0;points=[];autosize=1;strokeColor=none;fillColor=none;labelBackgroundColor=none;" parent="wgqo_BjnbtqxxB7jQF8x-17" vertex="1">
          <mxGeometry x="26" y="28" width="123" height="26" as="geometry" />
        </mxCell>
        <mxCell id="7fY5sP91VnXdCJbbnflD-43" value="" style="endArrow=open;endFill=1;endSize=12;html=1;rounded=0;labelBackgroundColor=none;fontColor=default;" parent="wgqo_BjnbtqxxB7jQF8x-17" edge="1">
          <mxGeometry width="160" relative="1" as="geometry">
            <mxPoint x="145.68" y="97.41" as="sourcePoint" />
            <mxPoint x="26" y="97" as="targetPoint" />
            <Array as="points">
              <mxPoint x="120" y="97" />
              <mxPoint x="85" y="97" />
            </Array>
          </mxGeometry>
        </mxCell>
        <mxCell id="wgqo_BjnbtqxxB7jQF8x-25" value="start recording" style="text;html=1;align=center;verticalAlign=middle;resizable=0;points=[];autosize=1;strokeColor=none;fillColor=none;labelBackgroundColor=none;" parent="wgqo_BjnbtqxxB7jQF8x-1" vertex="1">
          <mxGeometry x="88" y="121" width="95" height="26" as="geometry" />
        </mxCell>
        <mxCell id="7fY5sP91VnXdCJbbnflD-1" value="" style="endArrow=open;endFill=1;endSize=12;html=1;rounded=0;entryX=0.005;entryY=0.264;entryDx=0;entryDy=0;entryPerimeter=0;labelBackgroundColor=none;fontColor=default;" parent="wgqo_BjnbtqxxB7jQF8x-1" source="wgqo_BjnbtqxxB7jQF8x-7" target="s34lRMNUB2OJTxqoYaER-14" edge="1">
          <mxGeometry width="160" relative="1" as="geometry">
            <mxPoint x="649.07" y="577" as="sourcePoint" />
            <mxPoint x="564.0020000000001" y="577" as="targetPoint" />
          </mxGeometry>
        </mxCell>
        <mxCell id="7fY5sP91VnXdCJbbnflD-21" value="" style="endArrow=open;endFill=1;endSize=12;html=1;rounded=0;entryX=-0.005;entryY=0.796;entryDx=0;entryDy=0;entryPerimeter=0;labelBackgroundColor=none;fontColor=default;" parent="wgqo_BjnbtqxxB7jQF8x-1" source="wgqo_BjnbtqxxB7jQF8x-4" target="7fY5sP91VnXdCJbbnflD-18" edge="1">
          <mxGeometry width="160" relative="1" as="geometry">
            <mxPoint x="322" y="633" as="sourcePoint" />
            <mxPoint x="482" y="623" as="targetPoint" />
          </mxGeometry>
        </mxCell>
        <mxCell id="7fY5sP91VnXdCJbbnflD-59" value="fetchResult " style="text;html=1;align=center;verticalAlign=middle;resizable=0;points=[];autosize=1;strokeColor=none;fillColor=none;labelBackgroundColor=none;" parent="wgqo_BjnbtqxxB7jQF8x-1" vertex="1">
          <mxGeometry x="328" y="1284" width="78" height="26" as="geometry" />
        </mxCell>
        <mxCell id="7fY5sP91VnXdCJbbnflD-61" value="" style="html=1;verticalAlign=bottom;endArrow=block;curved=0;rounded=0;entryX=0;entryY=0;entryDx=0;entryDy=5;labelBackgroundColor=none;fontColor=default;" parent="wgqo_BjnbtqxxB7jQF8x-1" source="wgqo_BjnbtqxxB7jQF8x-2" target="7fY5sP91VnXdCJbbnflD-60" edge="1">
          <mxGeometry relative="1" as="geometry">
            <mxPoint x="204" y="1029" as="sourcePoint" />
            <Array as="points" />
          </mxGeometry>
        </mxCell>
        <mxCell id="7fY5sP91VnXdCJbbnflD-62" value="return" style="html=1;verticalAlign=bottom;endArrow=open;dashed=1;endSize=8;curved=0;rounded=0;exitX=0;exitY=1;exitDx=0;exitDy=-5;labelBackgroundColor=none;fontColor=default;" parent="wgqo_BjnbtqxxB7jQF8x-1" source="7fY5sP91VnXdCJbbnflD-60" target="wgqo_BjnbtqxxB7jQF8x-2" edge="1">
          <mxGeometry relative="1" as="geometry">
            <mxPoint x="204" y="1099" as="targetPoint" />
            <Array as="points" />
          </mxGeometry>
        </mxCell>
        <mxCell id="7fY5sP91VnXdCJbbnflD-66" value="Loop" style="shape=umlFrame;whiteSpace=wrap;html=1;pointerEvents=0;recursiveResize=0;container=1;collapsible=0;width=50;labelBackgroundColor=none;" parent="wgqo_BjnbtqxxB7jQF8x-1" vertex="1">
          <mxGeometry x="38" y="946" width="718" height="306" as="geometry" />
        </mxCell>
        <mxCell id="wgqo_BjnbtqxxB7jQF8x-19" value="Loop(2)" style="shape=umlFrame;whiteSpace=wrap;html=1;pointerEvents=0;recursiveResize=0;container=1;collapsible=0;width=50;labelBackgroundColor=none;" parent="wgqo_BjnbtqxxB7jQF8x-1" vertex="1">
          <mxGeometry x="36" y="393" width="716" height="362" as="geometry" />
        </mxCell>
        <mxCell id="7fY5sP91VnXdCJbbnflD-10" value="Seq" style="shape=umlFrame;whiteSpace=wrap;html=1;pointerEvents=0;recursiveResize=0;container=1;collapsible=0;width=50;labelBackgroundColor=none;" parent="wgqo_BjnbtqxxB7jQF8x-19" vertex="1">
          <mxGeometry x="244" y="203" width="296" height="125" as="geometry" />
        </mxCell>
        <mxCell id="wgqo_BjnbtqxxB7jQF8x-13" value="" style="endArrow=open;endFill=1;endSize=12;html=1;rounded=0;labelBackgroundColor=none;fontColor=default;" parent="7fY5sP91VnXdCJbbnflD-10" edge="1">
          <mxGeometry width="160" relative="1" as="geometry">
            <mxPoint x="33" y="106" as="sourcePoint" />
            <mxPoint x="278.5" y="106" as="targetPoint" />
            <Array as="points" />
          </mxGeometry>
        </mxCell>
        <mxCell id="wgqo_BjnbtqxxB7jQF8x-31" value="record b" style="text;html=1;align=center;verticalAlign=middle;resizable=0;points=[];autosize=1;strokeColor=none;fillColor=none;labelBackgroundColor=none;" parent="7fY5sP91VnXdCJbbnflD-10" vertex="1">
          <mxGeometry x="161" y="82" width="62" height="26" as="geometry" />
        </mxCell>
        <mxCell id="wgqo_BjnbtqxxB7jQF8x-27" value="record a" style="text;html=1;align=center;verticalAlign=middle;resizable=0;points=[];autosize=1;strokeColor=none;fillColor=none;labelBackgroundColor=none;" parent="7fY5sP91VnXdCJbbnflD-10" vertex="1">
          <mxGeometry x="53" y="17" width="62" height="26" as="geometry" />
        </mxCell>
        <mxCell id="wgqo_BjnbtqxxB7jQF8x-11" value="" style="endArrow=open;endFill=1;endSize=12;html=1;rounded=0;movable=1;resizable=1;rotatable=1;deletable=1;editable=1;locked=0;connectable=1;labelBackgroundColor=none;fontColor=default;" parent="7fY5sP91VnXdCJbbnflD-10" target="wgqo_BjnbtqxxB7jQF8x-5" edge="1">
          <mxGeometry width="160" relative="1" as="geometry">
            <mxPoint x="33" y="40" as="sourcePoint" />
            <mxPoint x="126.5" y="40.41" as="targetPoint" />
            <Array as="points">
              <mxPoint x="76" y="40" />
            </Array>
          </mxGeometry>
        </mxCell>
        <mxCell id="7fY5sP91VnXdCJbbnflD-12" value="" style="endArrow=none;html=1;rounded=0;exitX=0.003;exitY=0.589;exitDx=0;exitDy=0;exitPerimeter=0;entryX=0.992;entryY=0.587;entryDx=0;entryDy=0;entryPerimeter=0;labelBackgroundColor=none;fontColor=default;" parent="wgqo_BjnbtqxxB7jQF8x-19" source="7fY5sP91VnXdCJbbnflD-10" target="7fY5sP91VnXdCJbbnflD-10" edge="1">
          <mxGeometry width="50" height="50" relative="1" as="geometry">
            <mxPoint x="303" y="257" as="sourcePoint" />
            <mxPoint x="529" y="160" as="targetPoint" />
          </mxGeometry>
        </mxCell>
        <mxCell id="wgqo_BjnbtqxxB7jQF8x-21" value="Alt" style="shape=umlFrame;whiteSpace=wrap;html=1;pointerEvents=0;recursiveResize=0;container=1;collapsible=0;width=50;labelBackgroundColor=none;" parent="wgqo_BjnbtqxxB7jQF8x-19" vertex="1">
          <mxGeometry x="116" y="33" width="430" height="152" as="geometry" />
        </mxCell>
        <mxCell id="s34lRMNUB2OJTxqoYaER-6" value="cannot record" style="text;html=1;align=center;verticalAlign=middle;resizable=0;points=[];autosize=1;strokeColor=none;fillColor=none;labelBackgroundColor=none;" parent="wgqo_BjnbtqxxB7jQF8x-21" vertex="1">
          <mxGeometry x="66" y="19" width="91" height="26" as="geometry" />
        </mxCell>
        <mxCell id="s34lRMNUB2OJTxqoYaER-9" value="" style="endArrow=open;endFill=1;endSize=12;html=1;rounded=0;labelBackgroundColor=none;fontColor=default;" parent="wgqo_BjnbtqxxB7jQF8x-21" edge="1">
          <mxGeometry width="160" relative="1" as="geometry">
            <mxPoint x="163" y="131" as="sourcePoint" />
            <mxPoint x="45" y="131" as="targetPoint" />
          </mxGeometry>
        </mxCell>
        <mxCell id="s34lRMNUB2OJTxqoYaER-12" value="" style="endArrow=open;endFill=1;endSize=12;html=1;rounded=0;labelBackgroundColor=none;fontColor=default;" parent="wgqo_BjnbtqxxB7jQF8x-21" edge="1">
          <mxGeometry width="160" relative="1" as="geometry">
            <mxPoint x="45.5" y="50" as="sourcePoint" />
            <mxPoint x="-3" y="50" as="targetPoint" />
            <Array as="points">
              <mxPoint x="17" y="50" />
            </Array>
          </mxGeometry>
        </mxCell>
        <mxCell id="7fY5sP91VnXdCJbbnflD-24" value="record activated" style="text;html=1;align=center;verticalAlign=middle;resizable=0;points=[];autosize=1;strokeColor=none;fillColor=none;labelBackgroundColor=none;" parent="wgqo_BjnbtqxxB7jQF8x-21" vertex="1">
          <mxGeometry x="56" y="102" width="103" height="26" as="geometry" />
        </mxCell>
        <mxCell id="s34lRMNUB2OJTxqoYaER-8" value="" style="endArrow=open;endFill=1;endSize=12;html=1;rounded=0;labelBackgroundColor=none;fontColor=default;" parent="wgqo_BjnbtqxxB7jQF8x-21" edge="1">
          <mxGeometry width="160" relative="1" as="geometry">
            <mxPoint x="169.5" y="39" as="sourcePoint" />
            <mxPoint x="50.5" y="39" as="targetPoint" />
          </mxGeometry>
        </mxCell>
        <mxCell id="s34lRMNUB2OJTxqoYaER-5" value="" style="endArrow=none;dashed=1;html=1;dashPattern=1 3;strokeWidth=2;rounded=0;exitX=0.006;exitY=0.625;exitDx=0;exitDy=0;exitPerimeter=0;entryX=1.007;entryY=0.639;entryDx=0;entryDy=0;entryPerimeter=0;labelBackgroundColor=none;fontColor=default;" parent="wgqo_BjnbtqxxB7jQF8x-21" edge="1">
          <mxGeometry width="50" height="50" relative="1" as="geometry">
            <mxPoint x="-0.43000000000007255" y="88.00499999999977" as="sourcePoint" />
            <mxPoint x="430" y="90.37099999999975" as="targetPoint" />
          </mxGeometry>
        </mxCell>
        <mxCell id="s34lRMNUB2OJTxqoYaER-13" value="failure" style="text;html=1;align=center;verticalAlign=middle;resizable=0;points=[];autosize=1;strokeColor=none;fillColor=none;labelBackgroundColor=none;" parent="wgqo_BjnbtqxxB7jQF8x-19" vertex="1">
          <mxGeometry x="39" y="64" width="51" height="26" as="geometry" />
        </mxCell>
        <mxCell id="7fY5sP91VnXdCJbbnflD-53" value="" style="endArrow=open;endFill=1;endSize=12;html=1;rounded=0;exitX=0.009;exitY=0.486;exitDx=0;exitDy=0;exitPerimeter=0;labelBackgroundColor=none;fontColor=default;" parent="wgqo_BjnbtqxxB7jQF8x-19" edge="1">
          <mxGeometry width="160" relative="1" as="geometry">
            <mxPoint x="113.36999999999989" y="98.00400000000002" as="sourcePoint" />
            <mxPoint x="37" y="99.77999999999997" as="targetPoint" />
            <Array as="points" />
          </mxGeometry>
        </mxCell>
        <mxCell id="wgqo_BjnbtqxxB7jQF8x-26" value="activate record" style="text;html=1;align=center;verticalAlign=middle;resizable=0;points=[];autosize=1;strokeColor=none;fillColor=none;labelBackgroundColor=none;" parent="wgqo_BjnbtqxxB7jQF8x-1" vertex="1">
          <mxGeometry x="205" y="326" width="97" height="26" as="geometry" />
        </mxCell>
        <mxCell id="wgqo_BjnbtqxxB7jQF8x-10" value="" style="endArrow=open;endFill=1;endSize=12;html=1;rounded=0;labelBackgroundColor=none;fontColor=default;" parent="wgqo_BjnbtqxxB7jQF8x-1" edge="1">
          <mxGeometry width="160" relative="1" as="geometry">
            <mxPoint x="195" y="360" as="sourcePoint" />
            <mxPoint x="320" y="360" as="targetPoint" />
          </mxGeometry>
        </mxCell>
        <mxCell id="wgqo_BjnbtqxxB7jQF8x-24" value="Ref" style="shape=umlFrame;whiteSpace=wrap;html=1;pointerEvents=0;recursiveResize=0;container=1;collapsible=0;width=50;labelBackgroundColor=none;" parent="wgqo_BjnbtqxxB7jQF8x-1" vertex="1">
          <mxGeometry x="40" y="870" width="672" height="59" as="geometry" />
        </mxCell>
        <mxCell id="wgqo_BjnbtqxxB7jQF8x-62" value="&lt;font style=&quot;font-size: 18px;&quot;&gt;EmotionAnalysis&lt;/font&gt;" style="text;html=1;align=center;verticalAlign=middle;resizable=0;points=[];autosize=1;strokeColor=none;fillColor=none;labelBackgroundColor=none;" parent="wgqo_BjnbtqxxB7jQF8x-24" vertex="1">
          <mxGeometry x="115" y="16" width="151" height="34" as="geometry" />
        </mxCell>
        <mxCell id="7fY5sP91VnXdCJbbnflD-68" value="" style="endArrow=open;endFill=1;endSize=12;html=1;rounded=0;labelBackgroundColor=none;fontColor=default;" parent="wgqo_BjnbtqxxB7jQF8x-1" edge="1">
          <mxGeometry width="160" relative="1" as="geometry">
            <mxPoint x="196" y="814.38" as="sourcePoint" />
            <mxPoint x="672.5" y="814.3799999999999" as="targetPoint" />
          </mxGeometry>
        </mxCell>
        <mxCell id="7fY5sP91VnXdCJbbnflD-69" value="destruction" style="text;html=1;align=center;verticalAlign=middle;resizable=0;points=[];autosize=1;strokeColor=none;fillColor=none;labelBackgroundColor=none;" parent="wgqo_BjnbtqxxB7jQF8x-1" vertex="1">
          <mxGeometry x="347" y="791" width="77" height="26" as="geometry" />
        </mxCell>
        <mxCell id="7fY5sP91VnXdCJbbnflD-71" value="" style="endArrow=open;endFill=1;endSize=12;html=1;rounded=0;labelBackgroundColor=none;fontColor=default;" parent="wgqo_BjnbtqxxB7jQF8x-1" edge="1">
          <mxGeometry width="160" relative="1" as="geometry">
            <mxPoint x="199" y="790" as="sourcePoint" />
            <mxPoint x="72" y="789.75" as="targetPoint" />
          </mxGeometry>
        </mxCell>
        <mxCell id="7fY5sP91VnXdCJbbnflD-72" value="failure notification" style="text;html=1;align=center;verticalAlign=middle;resizable=0;points=[];autosize=1;strokeColor=none;fillColor=none;labelBackgroundColor=none;" parent="wgqo_BjnbtqxxB7jQF8x-1" vertex="1">
          <mxGeometry x="80" y="765" width="111" height="26" as="geometry" />
        </mxCell>
        <mxCell id="wgqo_BjnbtqxxB7jQF8x-36" value="&lt;font style=&quot;font-size: 14px;&quot;&gt;&lt;b&gt;SD EmotionAnalysis&lt;/b&gt;&lt;/font&gt;" style="shape=umlFrame;whiteSpace=wrap;html=1;pointerEvents=0;recursiveResize=0;container=1;collapsible=0;width=160;movable=1;resizable=1;rotatable=1;deletable=1;editable=1;locked=0;connectable=1;labelBackgroundColor=none;" parent="1" vertex="1">
          <mxGeometry x="37" y="1980.5" width="457" height="349" as="geometry" />
        </mxCell>
        <mxCell id="wgqo_BjnbtqxxB7jQF8x-37" value="&lt;b&gt;:Video Recorder&lt;/b&gt;" style="shape=umlLifeline;perimeter=lifelinePerimeter;whiteSpace=wrap;html=1;container=1;dropTarget=0;collapsible=0;recursiveResize=0;outlineConnect=0;portConstraint=eastwest;newEdgeStyle={&quot;edgeStyle&quot;:&quot;elbowEdgeStyle&quot;,&quot;elbow&quot;:&quot;vertical&quot;,&quot;curved&quot;:0,&quot;rounded&quot;:0};labelBackgroundColor=none;" parent="wgqo_BjnbtqxxB7jQF8x-36" vertex="1">
          <mxGeometry x="20" y="37" width="100" height="306" as="geometry" />
        </mxCell>
        <mxCell id="wgqo_BjnbtqxxB7jQF8x-38" value="&lt;b&gt;:Service&lt;/b&gt;" style="shape=umlLifeline;perimeter=lifelinePerimeter;whiteSpace=wrap;html=1;container=1;dropTarget=0;collapsible=0;recursiveResize=0;outlineConnect=0;portConstraint=eastwest;newEdgeStyle={&quot;edgeStyle&quot;:&quot;elbowEdgeStyle&quot;,&quot;elbow&quot;:&quot;vertical&quot;,&quot;curved&quot;:0,&quot;rounded&quot;:0};labelBackgroundColor=none;" parent="wgqo_BjnbtqxxB7jQF8x-36" vertex="1">
          <mxGeometry x="161" y="37" width="100" height="309" as="geometry" />
        </mxCell>
        <mxCell id="wgqo_BjnbtqxxB7jQF8x-39" value="&lt;b&gt;:Therapist&lt;/b&gt;" style="shape=umlLifeline;perimeter=lifelinePerimeter;whiteSpace=wrap;html=1;container=1;dropTarget=0;collapsible=0;recursiveResize=0;outlineConnect=0;portConstraint=eastwest;newEdgeStyle={&quot;edgeStyle&quot;:&quot;elbowEdgeStyle&quot;,&quot;elbow&quot;:&quot;vertical&quot;,&quot;curved&quot;:0,&quot;rounded&quot;:0};labelBackgroundColor=none;" parent="wgqo_BjnbtqxxB7jQF8x-36" vertex="1">
          <mxGeometry x="298" y="37" width="100" height="308" as="geometry" />
        </mxCell>
        <mxCell id="wgqo_BjnbtqxxB7jQF8x-40" value="" style="endArrow=open;endFill=1;endSize=12;html=1;rounded=0;labelBackgroundColor=none;fontColor=default;" parent="wgqo_BjnbtqxxB7jQF8x-36" target="wgqo_BjnbtqxxB7jQF8x-38" edge="1">
          <mxGeometry width="160" relative="1" as="geometry">
            <mxPoint x="69" y="118" as="sourcePoint" />
            <mxPoint x="229" y="118" as="targetPoint" />
          </mxGeometry>
        </mxCell>
        <mxCell id="wgqo_BjnbtqxxB7jQF8x-42" value="" style="endArrow=open;endFill=1;endSize=12;html=1;rounded=0;labelBackgroundColor=none;fontColor=default;" parent="wgqo_BjnbtqxxB7jQF8x-36" target="wgqo_BjnbtqxxB7jQF8x-39" edge="1">
          <mxGeometry width="160" relative="1" as="geometry">
            <mxPoint x="210" y="206" as="sourcePoint" />
            <mxPoint x="236" y="206" as="targetPoint" />
          </mxGeometry>
        </mxCell>
        <mxCell id="wgqo_BjnbtqxxB7jQF8x-48" value="process video A" style="text;html=1;align=center;verticalAlign=middle;resizable=0;points=[];autosize=1;strokeColor=none;fillColor=none;movable=0;rotatable=0;deletable=0;editable=0;locked=1;connectable=0;labelBackgroundColor=none;" parent="wgqo_BjnbtqxxB7jQF8x-36" vertex="1">
          <mxGeometry x="207" y="108" width="103" height="26" as="geometry" />
        </mxCell>
        <mxCell id="wgqo_BjnbtqxxB7jQF8x-41" value="send video for partner A" style="text;html=1;align=center;verticalAlign=middle;resizable=0;points=[];autosize=1;strokeColor=none;fillColor=none;labelBackgroundColor=none;" parent="wgqo_BjnbtqxxB7jQF8x-36" vertex="1">
          <mxGeometry x="68" y="93" width="146" height="26" as="geometry" />
        </mxCell>
        <mxCell id="wgqo_BjnbtqxxB7jQF8x-51" value="" style="endArrow=open;endFill=1;endSize=12;html=1;rounded=0;labelBackgroundColor=none;fontColor=default;" parent="wgqo_BjnbtqxxB7jQF8x-36" edge="1">
          <mxGeometry width="160" relative="1" as="geometry">
            <mxPoint x="72" y="234" as="sourcePoint" />
            <mxPoint x="213" y="234" as="targetPoint" />
          </mxGeometry>
        </mxCell>
        <mxCell id="wgqo_BjnbtqxxB7jQF8x-52" value="send video for partner B" style="text;html=1;align=center;verticalAlign=middle;resizable=0;points=[];autosize=1;strokeColor=none;fillColor=none;labelBackgroundColor=none;" parent="wgqo_BjnbtqxxB7jQF8x-36" vertex="1">
          <mxGeometry x="68" y="209" width="146" height="26" as="geometry" />
        </mxCell>
        <mxCell id="wgqo_BjnbtqxxB7jQF8x-58" value="" style="endArrow=open;endFill=1;endSize=12;html=1;rounded=0;labelBackgroundColor=none;fontColor=default;" parent="wgqo_BjnbtqxxB7jQF8x-36" edge="1">
          <mxGeometry width="160" relative="1" as="geometry">
            <mxPoint x="210" y="323" as="sourcePoint" />
            <mxPoint x="349" y="325" as="targetPoint" />
          </mxGeometry>
        </mxCell>
        <mxCell id="wgqo_BjnbtqxxB7jQF8x-59" value="send analysis result" style="text;html=1;align=center;verticalAlign=middle;resizable=0;points=[];autosize=1;strokeColor=none;fillColor=none;labelBackgroundColor=none;" parent="wgqo_BjnbtqxxB7jQF8x-36" vertex="1">
          <mxGeometry x="217" y="301" width="123" height="26" as="geometry" />
        </mxCell>
        <mxCell id="wgqo_BjnbtqxxB7jQF8x-49" value="sends analysis result" style="text;html=1;align=center;verticalAlign=middle;resizable=0;points=[];autosize=1;strokeColor=none;fillColor=none;labelBackgroundColor=none;" parent="wgqo_BjnbtqxxB7jQF8x-36" vertex="1">
          <mxGeometry x="207" y="183" width="129" height="26" as="geometry" />
        </mxCell>
        <mxCell id="7fY5sP91VnXdCJbbnflD-34" value="process video B" style="text;html=1;align=center;verticalAlign=middle;resizable=0;points=[];autosize=1;strokeColor=none;fillColor=none;labelBackgroundColor=none;" parent="wgqo_BjnbtqxxB7jQF8x-36" vertex="1">
          <mxGeometry x="214" y="217" width="103" height="26" as="geometry" />
        </mxCell>
        <mxCell id="7fY5sP91VnXdCJbbnflD-27" value="" style="html=1;points=[[0,0,0,0,5],[0,1,0,0,-5],[1,0,0,0,5],[1,1,0,0,-5]];perimeter=orthogonalPerimeter;outlineConnect=0;targetShapes=umlLifeline;portConstraint=eastwest;newEdgeStyle={&quot;curved&quot;:0,&quot;rounded&quot;:0};movable=0;resizable=0;rotatable=0;deletable=0;editable=0;locked=1;connectable=0;labelBackgroundColor=none;" parent="1" vertex="1">
          <mxGeometry x="241" y="2135" width="10" height="40" as="geometry" />
        </mxCell>
        <mxCell id="7fY5sP91VnXdCJbbnflD-28" value="self call" style="html=1;align=left;spacingLeft=2;endArrow=block;rounded=0;edgeStyle=orthogonalEdgeStyle;curved=0;rounded=0;labelBackgroundColor=none;fontColor=default;" parent="1" target="7fY5sP91VnXdCJbbnflD-27" edge="1">
          <mxGeometry relative="1" as="geometry">
            <mxPoint x="246" y="2115" as="sourcePoint" />
            <Array as="points">
              <mxPoint x="276" y="2145" />
            </Array>
          </mxGeometry>
        </mxCell>
        <mxCell id="7fY5sP91VnXdCJbbnflD-32" value="" style="html=1;points=[[0,0,0,0,5],[0,1,0,0,-5],[1,0,0,0,5],[1,1,0,0,-5]];perimeter=orthogonalPerimeter;outlineConnect=0;targetShapes=umlLifeline;portConstraint=eastwest;newEdgeStyle={&quot;curved&quot;:0,&quot;rounded&quot;:0};movable=0;resizable=0;rotatable=0;deletable=0;editable=0;locked=1;connectable=0;labelBackgroundColor=none;" parent="1" vertex="1">
          <mxGeometry x="241" y="2244" width="10" height="40" as="geometry" />
        </mxCell>
        <mxCell id="7fY5sP91VnXdCJbbnflD-33" value="self call" style="html=1;align=left;spacingLeft=2;endArrow=block;rounded=0;edgeStyle=orthogonalEdgeStyle;curved=0;rounded=0;movable=0;resizable=0;rotatable=0;deletable=0;editable=0;locked=1;connectable=0;labelBackgroundColor=none;fontColor=default;" parent="1" target="7fY5sP91VnXdCJbbnflD-32" edge="1">
          <mxGeometry relative="1" as="geometry">
            <mxPoint x="246" y="2224" as="sourcePoint" />
            <Array as="points">
              <mxPoint x="276" y="2254" />
            </Array>
          </mxGeometry>
        </mxCell>
      </root>
    </mxGraphModel>
  </diagram>
  <diagram id="nbGf52sVQURP1hSzE5dZ" name="task-3-sm">
    <mxGraphModel dx="1026" dy="575" grid="1" gridSize="10" guides="1" tooltips="1" connect="1" arrows="1" fold="1" page="1" pageScale="1" pageWidth="827" pageHeight="1169" math="0" shadow="0">
      <root>
        <mxCell id="0" />
        <mxCell id="1" parent="0" />
      </root>
    </mxGraphModel>
  </diagram>
  <diagram id="M6x1b6NVa6k-G8GQgagW" name="Task-I-oblig-1-cd">
    <mxGraphModel dx="1132" dy="907" grid="0" gridSize="10" guides="1" tooltips="1" connect="1" arrows="1" fold="1" page="1" pageScale="1" pageWidth="827" pageHeight="1169" math="0" shadow="0">
      <root>
        <mxCell id="0" />
        <mxCell id="1" parent="0" />
        <mxCell id="VXFFvyp7Jk-jwuBDLO0F-6" value="&lt;b&gt;&lt;font style=&quot;font-size: 14px;&quot;&gt;:Event&lt;/font&gt;&lt;/b&gt;" style="html=1;whiteSpace=wrap;" vertex="1" parent="1">
          <mxGeometry x="560" y="240" width="160" height="80" as="geometry" />
        </mxCell>
        <mxCell id="VXFFvyp7Jk-jwuBDLO0F-7" value=":EventOrganizer" style="html=1;whiteSpace=wrap;" vertex="1" parent="1">
          <mxGeometry x="619" y="53" width="130" height="50" as="geometry" />
        </mxCell>
        <mxCell id="nLFiPMIi8x7Z5SYmup_8-3" value=":Third-PartyProvider" style="html=1;whiteSpace=wrap;movable=1;resizable=1;rotatable=1;deletable=1;editable=1;locked=0;connectable=1;" vertex="1" parent="1">
          <mxGeometry x="240" y="240" width="120" height="60" as="geometry" />
        </mxCell>
        <mxCell id="nLFiPMIi8x7Z5SYmup_8-4" value=":OrganizerDashboard" style="html=1;whiteSpace=wrap;" vertex="1" parent="1">
          <mxGeometry x="417" y="53" width="120" height="50.5" as="geometry" />
        </mxCell>
        <mxCell id="nLFiPMIi8x7Z5SYmup_8-5" value=":EventDatabase" style="html=1;whiteSpace=wrap;movable=1;resizable=1;rotatable=1;deletable=1;editable=1;locked=0;connectable=1;" vertex="1" parent="1">
          <mxGeometry x="213" y="53" width="150" height="50" as="geometry" />
        </mxCell>
        <mxCell id="nLFiPMIi8x7Z5SYmup_8-6" value=":ThirdPartyService" style="html=1;whiteSpace=wrap;movable=1;resizable=1;rotatable=1;deletable=1;editable=1;locked=0;connectable=1;" vertex="1" parent="1">
          <mxGeometry x="220" y="340" width="170" height="50" as="geometry" />
        </mxCell>
        <mxCell id="nLFiPMIi8x7Z5SYmup_8-7" value=":PaymentGateway" style="html=1;whiteSpace=wrap;movable=1;resizable=1;rotatable=1;deletable=1;editable=1;locked=0;connectable=1;" vertex="1" parent="1">
          <mxGeometry x="40" y="520" width="110" height="50" as="geometry" />
        </mxCell>
        <mxCell id="nLFiPMIi8x7Z5SYmup_8-8" value=":Coustmer (ticket buyer)" style="html=1;whiteSpace=wrap;movable=1;resizable=1;rotatable=1;deletable=1;editable=1;locked=0;connectable=1;" vertex="1" parent="1">
          <mxGeometry x="850" y="240" width="110" height="50" as="geometry" />
        </mxCell>
        <mxCell id="nLFiPMIi8x7Z5SYmup_8-9" value=":TicketSystem" style="html=1;whiteSpace=wrap;movable=1;resizable=1;rotatable=1;deletable=1;editable=1;locked=0;connectable=1;" vertex="1" parent="1">
          <mxGeometry x="560" y="400" width="120" height="50" as="geometry" />
        </mxCell>
        <mxCell id="nLFiPMIi8x7Z5SYmup_8-10" value=":Ticket" style="html=1;whiteSpace=wrap;movable=1;resizable=1;rotatable=1;deletable=1;editable=1;locked=0;connectable=1;" vertex="1" parent="1">
          <mxGeometry x="850" y="400" width="110" height="50" as="geometry" />
        </mxCell>
        <mxCell id="nLFiPMIi8x7Z5SYmup_8-11" value=":EmailService" style="html=1;whiteSpace=wrap;movable=1;resizable=1;rotatable=1;deletable=1;editable=1;locked=0;connectable=1;" vertex="1" parent="1">
          <mxGeometry x="220" y="520" width="100" height="50" as="geometry" />
        </mxCell>
        <mxCell id="nLFiPMIi8x7Z5SYmup_8-12" value=":DatabaseService" style="html=1;whiteSpace=wrap;movable=1;resizable=1;rotatable=1;deletable=1;editable=1;locked=0;connectable=1;" vertex="1" parent="1">
          <mxGeometry x="380" y="520" width="100" height="50" as="geometry" />
        </mxCell>
        <mxCell id="nLFiPMIi8x7Z5SYmup_8-13" value=":AccountingService" style="html=1;whiteSpace=wrap;movable=1;resizable=1;rotatable=1;deletable=1;editable=1;locked=0;connectable=1;" vertex="1" parent="1">
          <mxGeometry x="40" y="340" width="110" height="50" as="geometry" />
        </mxCell>
        <mxCell id="nLFiPMIi8x7Z5SYmup_8-14" value=":PaymentSystem" style="html=1;whiteSpace=wrap;movable=1;resizable=1;rotatable=1;deletable=1;editable=1;locked=0;connectable=1;" vertex="1" parent="1">
          <mxGeometry x="560" y="520" width="110" height="50" as="geometry" />
        </mxCell>
        <mxCell id="nLFiPMIi8x7Z5SYmup_8-18" value="" style="endArrow=none;html=1;rounded=0;entryX=0;entryY=0.5;entryDx=0;entryDy=0;" edge="1" parent="1" target="nLFiPMIi8x7Z5SYmup_8-8">
          <mxGeometry width="50" height="50" relative="1" as="geometry">
            <mxPoint x="724" y="265" as="sourcePoint" />
            <mxPoint x="650" y="300" as="targetPoint" />
          </mxGeometry>
        </mxCell>
        <mxCell id="nLFiPMIi8x7Z5SYmup_8-19" value="" style="endArrow=none;html=1;rounded=0;exitX=0.5;exitY=0;exitDx=0;exitDy=0;entryX=0.5;entryY=1;entryDx=0;entryDy=0;" edge="1" parent="1" source="nLFiPMIi8x7Z5SYmup_8-10" target="nLFiPMIi8x7Z5SYmup_8-8">
          <mxGeometry width="50" height="50" relative="1" as="geometry">
            <mxPoint x="880" y="400" as="sourcePoint" />
            <mxPoint x="879" y="290" as="targetPoint" />
          </mxGeometry>
        </mxCell>
        <mxCell id="nLFiPMIi8x7Z5SYmup_8-20" value="" style="endArrow=none;html=1;rounded=0;entryX=0.363;entryY=1.05;entryDx=0;entryDy=0;entryPerimeter=0;" edge="1" parent="1" target="VXFFvyp7Jk-jwuBDLO0F-6">
          <mxGeometry width="50" height="50" relative="1" as="geometry">
            <mxPoint x="618" y="400" as="sourcePoint" />
            <mxPoint x="650" y="300" as="targetPoint" />
          </mxGeometry>
        </mxCell>
        <mxCell id="nLFiPMIi8x7Z5SYmup_8-21" value="" style="endArrow=none;html=1;rounded=0;" edge="1" parent="1">
          <mxGeometry width="50" height="50" relative="1" as="geometry">
            <mxPoint x="620" y="520" as="sourcePoint" />
            <mxPoint x="620" y="451" as="targetPoint" />
          </mxGeometry>
        </mxCell>
        <mxCell id="nLFiPMIi8x7Z5SYmup_8-43" value="&lt;font style=&quot;font-size: 14px;&quot;&gt;works&lt;/font&gt;" style="edgeLabel;html=1;align=center;verticalAlign=middle;resizable=0;points=[];" vertex="1" connectable="0" parent="nLFiPMIi8x7Z5SYmup_8-21">
          <mxGeometry x="0.0531" y="-5" relative="1" as="geometry">
            <mxPoint x="-28" y="-24" as="offset" />
          </mxGeometry>
        </mxCell>
        <mxCell id="nLFiPMIi8x7Z5SYmup_8-22" value="" style="endArrow=none;html=1;rounded=0;entryX=0;entryY=0.5;entryDx=0;entryDy=0;exitX=1;exitY=0.5;exitDx=0;exitDy=0;" edge="1" parent="1" source="nLFiPMIi8x7Z5SYmup_8-9" target="nLFiPMIi8x7Z5SYmup_8-10">
          <mxGeometry width="50" height="50" relative="1" as="geometry">
            <mxPoint x="630" y="390" as="sourcePoint" />
            <mxPoint x="680" y="340" as="targetPoint" />
          </mxGeometry>
        </mxCell>
        <mxCell id="nLFiPMIi8x7Z5SYmup_8-24" value="" style="endArrow=none;html=1;rounded=0;exitX=1;exitY=0.5;exitDx=0;exitDy=0;" edge="1" parent="1" source="nLFiPMIi8x7Z5SYmup_8-14">
          <mxGeometry width="50" height="50" relative="1" as="geometry">
            <mxPoint x="700" y="532.5" as="sourcePoint" />
            <mxPoint x="960" y="260" as="targetPoint" />
            <Array as="points">
              <mxPoint x="1000" y="545" />
              <mxPoint x="1000" y="260" />
            </Array>
          </mxGeometry>
        </mxCell>
        <mxCell id="nLFiPMIi8x7Z5SYmup_8-26" value="" style="endArrow=none;html=1;rounded=0;entryX=0.5;entryY=1;entryDx=0;entryDy=0;exitX=0.465;exitY=0.02;exitDx=0;exitDy=0;exitPerimeter=0;" edge="1" parent="1" source="nLFiPMIi8x7Z5SYmup_8-6" target="nLFiPMIi8x7Z5SYmup_8-3">
          <mxGeometry width="50" height="50" relative="1" as="geometry">
            <mxPoint x="430" y="400" as="sourcePoint" />
            <mxPoint x="480" y="350" as="targetPoint" />
          </mxGeometry>
        </mxCell>
        <mxCell id="nLFiPMIi8x7Z5SYmup_8-27" value="" style="endArrow=block;endSize=16;endFill=0;html=1;rounded=0;exitX=1;exitY=0.5;exitDx=0;exitDy=0;" edge="1" parent="1" source="nLFiPMIi8x7Z5SYmup_8-13" target="nLFiPMIi8x7Z5SYmup_8-6">
          <mxGeometry width="160" relative="1" as="geometry">
            <mxPoint x="140" y="360" as="sourcePoint" />
            <mxPoint x="440" y="360" as="targetPoint" />
          </mxGeometry>
        </mxCell>
        <mxCell id="nLFiPMIi8x7Z5SYmup_8-28" value="Extends" style="endArrow=block;endSize=16;endFill=0;html=1;rounded=0;exitX=0.367;exitY=0;exitDx=0;exitDy=0;exitPerimeter=0;entryX=0.182;entryY=1.08;entryDx=0;entryDy=0;entryPerimeter=0;" edge="1" parent="1" source="nLFiPMIi8x7Z5SYmup_8-7" target="nLFiPMIi8x7Z5SYmup_8-6">
          <mxGeometry width="160" relative="1" as="geometry">
            <mxPoint x="280" y="360" as="sourcePoint" />
            <mxPoint x="440" y="360" as="targetPoint" />
          </mxGeometry>
        </mxCell>
        <mxCell id="nLFiPMIi8x7Z5SYmup_8-29" value="Extends" style="endArrow=block;endSize=16;endFill=0;html=1;rounded=0;entryX=0.365;entryY=1.06;entryDx=0;entryDy=0;entryPerimeter=0;exitX=0.615;exitY=0.05;exitDx=0;exitDy=0;exitPerimeter=0;" edge="1" parent="1" source="nLFiPMIi8x7Z5SYmup_8-11" target="nLFiPMIi8x7Z5SYmup_8-6">
          <mxGeometry width="160" relative="1" as="geometry">
            <mxPoint x="280" y="510" as="sourcePoint" />
            <mxPoint x="440" y="360" as="targetPoint" />
          </mxGeometry>
        </mxCell>
        <mxCell id="nLFiPMIi8x7Z5SYmup_8-30" value="Extends" style="endArrow=block;endSize=16;endFill=0;html=1;rounded=0;exitX=0.5;exitY=0;exitDx=0;exitDy=0;entryX=0.865;entryY=1.04;entryDx=0;entryDy=0;entryPerimeter=0;" edge="1" parent="1" source="nLFiPMIi8x7Z5SYmup_8-12" target="nLFiPMIi8x7Z5SYmup_8-6">
          <mxGeometry width="160" relative="1" as="geometry">
            <mxPoint x="280" y="360" as="sourcePoint" />
            <mxPoint x="440" y="360" as="targetPoint" />
          </mxGeometry>
        </mxCell>
        <mxCell id="nLFiPMIi8x7Z5SYmup_8-31" value="" style="endArrow=diamondThin;endFill=1;endSize=24;html=1;rounded=0;entryX=0.328;entryY=0.967;entryDx=0;entryDy=0;entryPerimeter=0;exitX=0.627;exitY=0.046;exitDx=0;exitDy=0;exitPerimeter=0;" edge="1" parent="1" source="VXFFvyp7Jk-jwuBDLO0F-6" target="VXFFvyp7Jk-jwuBDLO0F-7">
          <mxGeometry width="160" relative="1" as="geometry">
            <mxPoint x="662" y="234" as="sourcePoint" />
            <mxPoint x="650" y="280" as="targetPoint" />
          </mxGeometry>
        </mxCell>
        <mxCell id="nLFiPMIi8x7Z5SYmup_8-32" value="&lt;font style=&quot;font-size: 14px;&quot;&gt;1..*&lt;/font&gt;" style="text;html=1;align=center;verticalAlign=middle;resizable=0;points=[];autosize=1;strokeColor=none;fillColor=none;" vertex="1" parent="1">
          <mxGeometry x="656" y="212" width="39" height="29" as="geometry" />
        </mxCell>
        <mxCell id="nLFiPMIi8x7Z5SYmup_8-33" value="&lt;font style=&quot;font-size: 14px;&quot;&gt;1&lt;/font&gt;" style="text;html=1;align=center;verticalAlign=middle;resizable=0;points=[];autosize=1;strokeColor=none;fillColor=none;" vertex="1" parent="1">
          <mxGeometry x="667" y="103.5" width="26" height="29" as="geometry" />
        </mxCell>
        <mxCell id="nLFiPMIi8x7Z5SYmup_8-35" value="&lt;font style=&quot;font-size: 14px;&quot;&gt;0..*&lt;/font&gt;" style="text;html=1;align=center;verticalAlign=middle;resizable=0;points=[];autosize=1;strokeColor=none;fillColor=none;" vertex="1" parent="1">
          <mxGeometry x="900" y="378" width="40" height="30" as="geometry" />
        </mxCell>
        <mxCell id="nLFiPMIi8x7Z5SYmup_8-36" value="&lt;font style=&quot;font-size: 14px;&quot;&gt;1&lt;/font&gt;" style="text;html=1;align=center;verticalAlign=middle;resizable=0;points=[];autosize=1;strokeColor=none;fillColor=none;" vertex="1" parent="1">
          <mxGeometry x="900" y="290" width="30" height="30" as="geometry" />
        </mxCell>
        <mxCell id="nLFiPMIi8x7Z5SYmup_8-37" value="&lt;font style=&quot;font-size: 14px;&quot;&gt;1..*&lt;/font&gt;" style="text;html=1;align=center;verticalAlign=middle;resizable=0;points=[];autosize=1;strokeColor=none;fillColor=none;" vertex="1" parent="1">
          <mxGeometry x="831" y="371" width="39" height="29" as="geometry" />
        </mxCell>
        <mxCell id="nLFiPMIi8x7Z5SYmup_8-38" value="&lt;font style=&quot;font-size: 18px;&quot;&gt;*&lt;/font&gt;" style="text;html=1;align=center;verticalAlign=middle;resizable=0;points=[];autosize=1;strokeColor=none;fillColor=none;" vertex="1" parent="1">
          <mxGeometry x="360" y="245" width="30" height="40" as="geometry" />
        </mxCell>
        <mxCell id="nLFiPMIi8x7Z5SYmup_8-40" value="&lt;font style=&quot;font-size: 14px;&quot;&gt;1&lt;/font&gt;" style="text;html=1;align=center;verticalAlign=middle;resizable=0;points=[];autosize=1;strokeColor=none;fillColor=none;" vertex="1" parent="1">
          <mxGeometry x="612" y="379" width="26" height="29" as="geometry" />
        </mxCell>
        <mxCell id="nLFiPMIi8x7Z5SYmup_8-41" value="&lt;font style=&quot;font-size: 14px;&quot;&gt;use&lt;/font&gt;" style="text;html=1;align=center;verticalAlign=middle;resizable=0;points=[];autosize=1;strokeColor=none;fillColor=none;" vertex="1" parent="1">
          <mxGeometry x="615" y="348" width="50" height="30" as="geometry" />
        </mxCell>
        <mxCell id="nLFiPMIi8x7Z5SYmup_8-42" value="&lt;font style=&quot;font-size: 14px;&quot;&gt;1..*&lt;/font&gt;" style="text;html=1;align=center;verticalAlign=middle;resizable=0;points=[];autosize=1;strokeColor=none;fillColor=none;" vertex="1" parent="1">
          <mxGeometry x="618" y="448" width="39" height="29" as="geometry" />
        </mxCell>
        <mxCell id="nLFiPMIi8x7Z5SYmup_8-44" value="&lt;font style=&quot;font-size: 14px;&quot;&gt;1..*&lt;/font&gt;" style="text;html=1;align=center;verticalAlign=middle;resizable=0;points=[];autosize=1;strokeColor=none;fillColor=none;" vertex="1" parent="1">
          <mxGeometry x="522" y="204" width="40" height="30" as="geometry" />
        </mxCell>
        <mxCell id="nLFiPMIi8x7Z5SYmup_8-45" value="&lt;font style=&quot;font-size: 14px;&quot;&gt;1&lt;/font&gt;" style="text;html=1;align=center;verticalAlign=middle;resizable=0;points=[];autosize=1;strokeColor=none;fillColor=none;" vertex="1" parent="1">
          <mxGeometry x="269" y="109" width="30" height="30" as="geometry" />
        </mxCell>
        <mxCell id="nLFiPMIi8x7Z5SYmup_8-46" value="" style="endArrow=diamondThin;endFill=1;endSize=24;html=1;rounded=0;" edge="1" parent="1" source="VXFFvyp7Jk-jwuBDLO0F-6">
          <mxGeometry width="160" relative="1" as="geometry">
            <mxPoint x="390" y="480" as="sourcePoint" />
            <mxPoint x="296" y="109" as="targetPoint" />
          </mxGeometry>
        </mxCell>
        <mxCell id="nLFiPMIi8x7Z5SYmup_8-47" value="" style="endArrow=diamondThin;endFill=0;endSize=24;html=1;rounded=0;entryX=1;entryY=1;entryDx=0;entryDy=0;exitX=0;exitY=0;exitDx=0;exitDy=0;" edge="1" parent="1" source="nLFiPMIi8x7Z5SYmup_8-10" target="VXFFvyp7Jk-jwuBDLO0F-6">
          <mxGeometry width="160" relative="1" as="geometry">
            <mxPoint x="760" y="470" as="sourcePoint" />
            <mxPoint x="640" y="460" as="targetPoint" />
          </mxGeometry>
        </mxCell>
        <mxCell id="nLFiPMIi8x7Z5SYmup_8-48" value="&lt;font style=&quot;font-size: 14px;&quot;&gt;1&lt;/font&gt;" style="text;html=1;align=center;verticalAlign=middle;resizable=0;points=[];autosize=1;strokeColor=none;fillColor=none;" vertex="1" parent="1">
          <mxGeometry x="717" y="331" width="26" height="29" as="geometry" />
        </mxCell>
        <mxCell id="nLFiPMIi8x7Z5SYmup_8-49" value="&lt;font style=&quot;font-size: 14px;&quot;&gt;1&lt;/font&gt;" style="text;html=1;align=center;verticalAlign=middle;resizable=0;points=[];autosize=1;strokeColor=none;fillColor=none;" vertex="1" parent="1">
          <mxGeometry x="617" y="319" width="26" height="29" as="geometry" />
        </mxCell>
        <mxCell id="nLFiPMIi8x7Z5SYmup_8-50" value="interact" style="text;html=1;align=center;verticalAlign=middle;resizable=0;points=[];autosize=1;strokeColor=none;fillColor=none;" vertex="1" parent="1">
          <mxGeometry x="410" y="245" width="60" height="30" as="geometry" />
        </mxCell>
        <mxCell id="nLFiPMIi8x7Z5SYmup_8-51" value="&lt;font style=&quot;font-size: 14px;&quot;&gt;1&lt;/font&gt;" style="text;html=1;align=center;verticalAlign=middle;resizable=0;points=[];autosize=1;strokeColor=none;fillColor=none;" vertex="1" parent="1">
          <mxGeometry x="522" y="246" width="26" height="29" as="geometry" />
        </mxCell>
        <mxCell id="p5UBoh67olgGvw_-wk7U-1" value="&lt;font style=&quot;font-size: 18px;&quot;&gt;*&lt;/font&gt;" style="text;html=1;align=center;verticalAlign=middle;resizable=0;points=[];autosize=1;strokeColor=none;fillColor=none;" vertex="1" parent="1">
          <mxGeometry x="825" y="423" width="25" height="34" as="geometry" />
        </mxCell>
        <mxCell id="p5UBoh67olgGvw_-wk7U-2" value="&lt;font style=&quot;font-size: 14px;&quot;&gt;1&lt;/font&gt;" style="text;html=1;align=center;verticalAlign=middle;resizable=0;points=[];autosize=1;strokeColor=none;fillColor=none;" vertex="1" parent="1">
          <mxGeometry x="681" y="423" width="26" height="29" as="geometry" />
        </mxCell>
        <mxCell id="p5UBoh67olgGvw_-wk7U-3" value="&lt;font style=&quot;font-size: 18px;&quot;&gt;*&lt;/font&gt;" style="text;html=1;align=center;verticalAlign=middle;resizable=0;points=[];autosize=1;strokeColor=none;fillColor=none;" vertex="1" parent="1">
          <mxGeometry x="670" y="544" width="25" height="34" as="geometry" />
        </mxCell>
        <mxCell id="p5UBoh67olgGvw_-wk7U-4" value="&lt;font style=&quot;font-size: 18px;&quot;&gt;*&lt;/font&gt;" style="text;html=1;align=center;verticalAlign=middle;resizable=0;points=[];autosize=1;strokeColor=none;fillColor=none;" vertex="1" parent="1">
          <mxGeometry x="963" y="240" width="25" height="34" as="geometry" />
        </mxCell>
        <mxCell id="p5UBoh67olgGvw_-wk7U-6" value="&lt;font style=&quot;font-size: 14px;&quot;&gt;interacts&lt;/font&gt;" style="text;html=1;align=center;verticalAlign=middle;resizable=0;points=[];autosize=1;strokeColor=none;fillColor=none;rotation=270;" vertex="1" parent="1">
          <mxGeometry x="956" y="343" width="71" height="29" as="geometry" />
        </mxCell>
        <mxCell id="p5UBoh67olgGvw_-wk7U-7" value="&lt;font style=&quot;font-size: 14px;&quot;&gt;uses&lt;/font&gt;" style="text;html=1;align=center;verticalAlign=middle;resizable=0;points=[];autosize=1;strokeColor=none;fillColor=none;" vertex="1" parent="1">
          <mxGeometry x="758" y="522" width="48" height="29" as="geometry" />
        </mxCell>
        <mxCell id="p5UBoh67olgGvw_-wk7U-8" value="&lt;font style=&quot;font-size: 14px;&quot;&gt;1&lt;/font&gt;" style="text;html=1;align=center;verticalAlign=middle;resizable=0;points=[];autosize=1;strokeColor=none;fillColor=none;" vertex="1" parent="1">
          <mxGeometry x="619" y="498" width="26" height="29" as="geometry" />
        </mxCell>
        <mxCell id="p5UBoh67olgGvw_-wk7U-12" value="&lt;font style=&quot;font-size: 14px;&quot;&gt;1..*&lt;/font&gt;" style="text;html=1;align=center;verticalAlign=middle;resizable=0;points=[];autosize=1;strokeColor=none;fillColor=none;" vertex="1" parent="1">
          <mxGeometry x="296" y="316" width="39" height="29" as="geometry" />
        </mxCell>
        <mxCell id="p5UBoh67olgGvw_-wk7U-13" value="&lt;font style=&quot;font-size: 14px;&quot;&gt;1&lt;/font&gt;" style="text;html=1;align=center;verticalAlign=middle;resizable=0;points=[];autosize=1;strokeColor=none;fillColor=none;" vertex="1" parent="1">
          <mxGeometry x="278" y="296" width="26" height="29" as="geometry" />
        </mxCell>
        <mxCell id="p5UBoh67olgGvw_-wk7U-15" value="&lt;font style=&quot;font-size: 18px;&quot;&gt;*&lt;/font&gt;" style="text;html=1;align=center;verticalAlign=middle;resizable=0;points=[];autosize=1;strokeColor=none;fillColor=none;" vertex="1" parent="1">
          <mxGeometry x="821" y="241" width="25" height="34" as="geometry" />
        </mxCell>
        <mxCell id="p5UBoh67olgGvw_-wk7U-16" value="&lt;font style=&quot;font-size: 14px;&quot;&gt;0..*&lt;/font&gt;" style="text;html=1;align=center;verticalAlign=middle;resizable=0;points=[];autosize=1;strokeColor=none;fillColor=none;" vertex="1" parent="1">
          <mxGeometry x="718" y="242" width="39" height="29" as="geometry" />
        </mxCell>
        <mxCell id="p5UBoh67olgGvw_-wk7U-17" value="have" style="text;html=1;align=center;verticalAlign=middle;resizable=0;points=[];autosize=1;strokeColor=none;fillColor=none;" vertex="1" parent="1">
          <mxGeometry x="803" y="271" width="44" height="26" as="geometry" />
        </mxCell>
        <mxCell id="p5UBoh67olgGvw_-wk7U-18" value="attend" style="text;html=1;align=center;verticalAlign=middle;resizable=0;points=[];autosize=1;strokeColor=none;fillColor=none;" vertex="1" parent="1">
          <mxGeometry x="712" y="273" width="51" height="26" as="geometry" />
        </mxCell>
        <mxCell id="p5UBoh67olgGvw_-wk7U-19" value="linked" style="text;html=1;align=center;verticalAlign=middle;resizable=0;points=[];autosize=1;strokeColor=none;fillColor=none;" vertex="1" parent="1">
          <mxGeometry x="570" y="498" width="49" height="26" as="geometry" />
        </mxCell>
        <mxCell id="p5UBoh67olgGvw_-wk7U-20" value="belongs" style="text;html=1;align=center;verticalAlign=middle;resizable=0;points=[];autosize=1;strokeColor=none;fillColor=none;" vertex="1" parent="1">
          <mxGeometry x="673" y="400" width="60" height="26" as="geometry" />
        </mxCell>
        <mxCell id="p5UBoh67olgGvw_-wk7U-21" value="manages" style="text;html=1;align=center;verticalAlign=middle;resizable=0;points=[];autosize=1;strokeColor=none;fillColor=none;" vertex="1" parent="1">
          <mxGeometry x="778" y="404" width="67" height="26" as="geometry" />
        </mxCell>
        <mxCell id="p5UBoh67olgGvw_-wk7U-22" value="generates" style="text;html=1;align=center;verticalAlign=middle;resizable=0;points=[];autosize=1;strokeColor=none;fillColor=none;" vertex="1" parent="1">
          <mxGeometry x="786" y="352" width="71" height="26" as="geometry" />
        </mxCell>
        <mxCell id="p5UBoh67olgGvw_-wk7U-23" value="manage" style="text;html=1;align=center;verticalAlign=middle;resizable=0;points=[];autosize=1;strokeColor=none;fillColor=none;" vertex="1" parent="1">
          <mxGeometry x="653.5" y="190" width="61" height="26" as="geometry" />
        </mxCell>
        <mxCell id="p5UBoh67olgGvw_-wk7U-24" value="belongs" style="text;html=1;align=center;verticalAlign=middle;resizable=0;points=[];autosize=1;strokeColor=none;fillColor=none;" vertex="1" parent="1">
          <mxGeometry x="597" y="131" width="60" height="26" as="geometry" />
        </mxCell>
        <mxCell id="p5UBoh67olgGvw_-wk7U-26" value="stores" style="text;html=1;align=center;verticalAlign=middle;resizable=0;points=[];autosize=1;strokeColor=none;fillColor=none;" vertex="1" parent="1">
          <mxGeometry x="480" y="182" width="51" height="26" as="geometry" />
        </mxCell>
        <mxCell id="p5UBoh67olgGvw_-wk7U-30" value="&lt;font style=&quot;font-size: 14px;&quot;&gt;1&lt;/font&gt;" style="text;html=1;align=center;verticalAlign=middle;resizable=0;points=[];autosize=1;strokeColor=none;fillColor=none;" vertex="1" parent="1">
          <mxGeometry x="594" y="55" width="26" height="29" as="geometry" />
        </mxCell>
        <mxCell id="p5UBoh67olgGvw_-wk7U-31" value="&lt;font style=&quot;font-size: 18px;&quot;&gt;*&lt;/font&gt;" style="text;html=1;align=center;verticalAlign=middle;resizable=0;points=[];autosize=1;strokeColor=none;fillColor=none;" vertex="1" parent="1">
          <mxGeometry x="535" y="57" width="25" height="34" as="geometry" />
        </mxCell>
        <mxCell id="p5UBoh67olgGvw_-wk7U-33" value=":Frontend" style="html=1;whiteSpace=wrap;" vertex="1" parent="1">
          <mxGeometry x="857" y="55" width="130" height="50" as="geometry" />
        </mxCell>
        <mxCell id="p5UBoh67olgGvw_-wk7U-34" value="" style="endArrow=open;endFill=1;endSize=12;html=1;rounded=0;exitX=0.169;exitY=1.02;exitDx=0;exitDy=0;exitPerimeter=0;" edge="1" parent="1" source="p5UBoh67olgGvw_-wk7U-33">
          <mxGeometry width="160" relative="1" as="geometry">
            <mxPoint x="580" y="202" as="sourcePoint" />
            <mxPoint x="710" y="237" as="targetPoint" />
          </mxGeometry>
        </mxCell>
        <mxCell id="p5UBoh67olgGvw_-wk7U-35" value="" style="endArrow=open;endFill=1;endSize=12;html=1;rounded=0;exitX=0.5;exitY=1;exitDx=0;exitDy=0;" edge="1" parent="1" source="p5UBoh67olgGvw_-wk7U-33">
          <mxGeometry width="160" relative="1" as="geometry">
            <mxPoint x="646" y="280" as="sourcePoint" />
            <mxPoint x="920" y="238" as="targetPoint" />
          </mxGeometry>
        </mxCell>
        <mxCell id="p5UBoh67olgGvw_-wk7U-38" value="&lt;font style=&quot;font-size: 14px;&quot;&gt;1..*&lt;/font&gt;" style="text;html=1;align=center;verticalAlign=middle;resizable=0;points=[];autosize=1;strokeColor=none;fillColor=none;" vertex="1" parent="1">
          <mxGeometry x="721" y="215" width="39" height="29" as="geometry" />
        </mxCell>
        <mxCell id="p5UBoh67olgGvw_-wk7U-39" value="&lt;font style=&quot;font-size: 14px;&quot;&gt;1..*&lt;/font&gt;" style="text;html=1;align=center;verticalAlign=middle;resizable=0;points=[];autosize=1;strokeColor=none;fillColor=none;" vertex="1" parent="1">
          <mxGeometry x="748" y="55" width="39" height="29" as="geometry" />
        </mxCell>
        <mxCell id="p5UBoh67olgGvw_-wk7U-40" value="&lt;font style=&quot;font-size: 14px;&quot;&gt;0..*&lt;/font&gt;" style="text;html=1;align=center;verticalAlign=middle;resizable=0;points=[];autosize=1;strokeColor=none;fillColor=none;" vertex="1" parent="1">
          <mxGeometry x="919" y="203" width="39" height="29" as="geometry" />
        </mxCell>
        <mxCell id="p5UBoh67olgGvw_-wk7U-41" value="&lt;font style=&quot;font-size: 14px;&quot;&gt;1..*&lt;/font&gt;" style="text;html=1;align=center;verticalAlign=middle;resizable=0;points=[];autosize=1;strokeColor=none;fillColor=none;" vertex="1" parent="1">
          <mxGeometry x="914" y="105" width="39" height="29" as="geometry" />
        </mxCell>
        <mxCell id="p5UBoh67olgGvw_-wk7U-42" value="&lt;font style=&quot;font-size: 14px;&quot;&gt;1&lt;/font&gt;" style="text;html=1;align=center;verticalAlign=middle;resizable=0;points=[];autosize=1;strokeColor=none;fillColor=none;" vertex="1" parent="1">
          <mxGeometry x="831" y="57" width="26" height="29" as="geometry" />
        </mxCell>
        <mxCell id="p5UBoh67olgGvw_-wk7U-44" value="&lt;font style=&quot;font-size: 14px;&quot;&gt;1&lt;/font&gt;" style="text;html=1;align=center;verticalAlign=middle;resizable=0;points=[];autosize=1;strokeColor=none;fillColor=none;" vertex="1" parent="1">
          <mxGeometry x="836" y="100" width="26" height="29" as="geometry" />
        </mxCell>
        <mxCell id="p5UBoh67olgGvw_-wk7U-46" value="" style="endArrow=none;html=1;rounded=0;entryX=1.026;entryY=0.828;entryDx=0;entryDy=0;entryPerimeter=0;exitX=0.009;exitY=0.851;exitDx=0;exitDy=0;exitPerimeter=0;" edge="1" parent="1" source="p5UBoh67olgGvw_-wk7U-39" target="p5UBoh67olgGvw_-wk7U-42">
          <mxGeometry width="50" height="50" relative="1" as="geometry">
            <mxPoint x="429" y="381" as="sourcePoint" />
            <mxPoint x="479" y="331" as="targetPoint" />
          </mxGeometry>
        </mxCell>
        <mxCell id="p5UBoh67olgGvw_-wk7U-47" value="" style="endArrow=open;endFill=1;endSize=12;html=1;rounded=0;entryX=0.056;entryY=0.867;entryDx=0;entryDy=0;entryPerimeter=0;" edge="1" parent="1" target="nLFiPMIi8x7Z5SYmup_8-38">
          <mxGeometry width="160" relative="1" as="geometry">
            <mxPoint x="558" y="284" as="sourcePoint" />
            <mxPoint x="666" y="340" as="targetPoint" />
          </mxGeometry>
        </mxCell>
        <mxCell id="p5UBoh67olgGvw_-wk7U-49" value="" style="endArrow=diamondThin;endFill=1;endSize=24;html=1;rounded=0;entryX=1.013;entryY=0.989;entryDx=0;entryDy=0;exitX=0.107;exitY=0.745;exitDx=0;exitDy=0;exitPerimeter=0;entryPerimeter=0;" edge="1" parent="1" source="p5UBoh67olgGvw_-wk7U-31" target="p5UBoh67olgGvw_-wk7U-30">
          <mxGeometry width="160" relative="1" as="geometry">
            <mxPoint x="506" y="340" as="sourcePoint" />
            <mxPoint x="666" y="340" as="targetPoint" />
          </mxGeometry>
        </mxCell>
      </root>
    </mxGraphModel>
  </diagram>
  <diagram id="P-5uD8rKxpVhpWGTvOPs" name="Task-II-oblig-1-sd">
    <mxGraphModel grid="1" page="1" gridSize="10" guides="1" tooltips="1" connect="1" arrows="1" fold="1" pageScale="1" pageWidth="827" pageHeight="1169" math="0" shadow="0">
      <root>
        <mxCell id="0" />
        <mxCell id="1" parent="0" />
        <mxCell id="BKERUurbVguedBVbvwuX-13" value=":Object" style="shape=umlLifeline;perimeter=lifelinePerimeter;whiteSpace=wrap;html=1;container=1;dropTarget=0;collapsible=0;recursiveResize=0;outlineConnect=0;portConstraint=eastwest;newEdgeStyle={&quot;curved&quot;:0,&quot;rounded&quot;:0};" vertex="1" parent="1">
          <mxGeometry y="80" width="100" height="300" as="geometry" />
        </mxCell>
        <mxCell id="BKERUurbVguedBVbvwuX-14" value=":Object" style="shape=umlLifeline;perimeter=lifelinePerimeter;whiteSpace=wrap;html=1;container=1;dropTarget=0;collapsible=0;recursiveResize=0;outlineConnect=0;portConstraint=eastwest;newEdgeStyle={&quot;curved&quot;:0,&quot;rounded&quot;:0};" vertex="1" parent="1">
          <mxGeometry x="160" y="80" width="100" height="300" as="geometry" />
        </mxCell>
        <mxCell id="BKERUurbVguedBVbvwuX-15" value=":Object" style="shape=umlLifeline;perimeter=lifelinePerimeter;whiteSpace=wrap;html=1;container=1;dropTarget=0;collapsible=0;recursiveResize=0;outlineConnect=0;portConstraint=eastwest;newEdgeStyle={&quot;curved&quot;:0,&quot;rounded&quot;:0};" vertex="1" parent="1">
          <mxGeometry x="320" y="80" width="100" height="300" as="geometry" />
        </mxCell>
        <mxCell id="BKERUurbVguedBVbvwuX-16" value=":Object" style="shape=umlLifeline;perimeter=lifelinePerimeter;whiteSpace=wrap;html=1;container=1;dropTarget=0;collapsible=0;recursiveResize=0;outlineConnect=0;portConstraint=eastwest;newEdgeStyle={&quot;curved&quot;:0,&quot;rounded&quot;:0};" vertex="1" parent="1">
          <mxGeometry x="480" y="80" width="100" height="300" as="geometry" />
        </mxCell>
        <mxCell id="BKERUurbVguedBVbvwuX-17" value=":Object" style="shape=umlLifeline;perimeter=lifelinePerimeter;whiteSpace=wrap;html=1;container=1;dropTarget=0;collapsible=0;recursiveResize=0;outlineConnect=0;portConstraint=eastwest;newEdgeStyle={&quot;curved&quot;:0,&quot;rounded&quot;:0};" vertex="1" parent="1">
          <mxGeometry x="640" y="80" width="100" height="300" as="geometry" />
        </mxCell>
        <mxCell id="BKERUurbVguedBVbvwuX-18" value=":Object" style="shape=umlLifeline;perimeter=lifelinePerimeter;whiteSpace=wrap;html=1;container=1;dropTarget=0;collapsible=0;recursiveResize=0;outlineConnect=0;portConstraint=eastwest;newEdgeStyle={&quot;curved&quot;:0,&quot;rounded&quot;:0};" vertex="1" parent="1">
          <mxGeometry x="800" y="80" width="100" height="300" as="geometry" />
        </mxCell>
        <mxCell id="BKERUurbVguedBVbvwuX-19" value=":Object" style="shape=umlLifeline;perimeter=lifelinePerimeter;whiteSpace=wrap;html=1;container=1;dropTarget=0;collapsible=0;recursiveResize=0;outlineConnect=0;portConstraint=eastwest;newEdgeStyle={&quot;curved&quot;:0,&quot;rounded&quot;:0};" vertex="1" parent="1">
          <mxGeometry x="970" y="80" width="100" height="300" as="geometry" />
        </mxCell>
      </root>
    </mxGraphModel>
  </diagram>
</mxfile>
